REM DIRINDEX 1\4,1\2\5,1\2\6,1\3\7,1\3\8
REM DIRNAME folder01,folder02,folder03,folder04,folder05,folder06,folder07,folder08
TITLE ""
FILE "091_Day46_Check2_Phrases 1.mp3" MP3
  TRACK 01 AUDIO
    TITLE "0:"
    INDEX 01 00:00:00
  TRACK 02 AUDIO
    TITLE "4:cjc124_2973"
    INDEX 01 00:00:33
  TRACK 03 AUDIO
    TITLE "0:"
    INDEX 01 00:01:56
  TRACK 04 AUDIO
    TITLE "5:cjc124_2974"
    INDEX 01 00:02:18
  TRACK 05 AUDIO
    TITLE "0:"
    INDEX 01 00:04:05
  TRACK 06 AUDIO
    TITLE "6:cjc124_2975"
    INDEX 01 00:04:21
  TRACK 07 AUDIO
    TITLE "0:"
    INDEX 01 00:05:56
  TRACK 08 AUDIO
    TITLE "5:cjc124_2976"
    INDEX 01 00:06:18
  TRACK 09 AUDIO
    TITLE "0:"
    INDEX 01 00:08:23
  TRACK 10 AUDIO
    TITLE "6:cjc124_2977"
    INDEX 01 00:08:48
  TRACK 11 AUDIO
    TITLE "0:"
    INDEX 01 00:10:35
  TRACK 12 AUDIO
    TITLE "5:cjc124_2978"
    INDEX 01 00:11:01
  TRACK 13 AUDIO
    TITLE "0:"
    INDEX 01 00:14:21
  TRACK 14 AUDIO
    TITLE "6:cjc124_2979"
    INDEX 01 00:14:37
  TRACK 15 AUDIO
    TITLE "0:"
    INDEX 01 00:17:35
  TRACK 16 AUDIO
    TITLE "5:cjc124_2980"
    INDEX 01 00:17:70
  TRACK 17 AUDIO
    TITLE "0:"
    INDEX 01 00:19:63
  TRACK 18 AUDIO
    TITLE "6:cjc124_2981"
    INDEX 01 00:20:04
  TRACK 19 AUDIO
    TITLE "0:"
    INDEX 01 00:21:09
  TRACK 20 AUDIO
    TITLE "5:cjc124_2982"
    INDEX 01 00:21:47
  TRACK 21 AUDIO
    TITLE "0:"
    INDEX 01 00:23:44
  TRACK 22 AUDIO
    TITLE "6:cjc124_2983"
    INDEX 01 00:23:59
  TRACK 23 AUDIO
    TITLE "0:"
    INDEX 01 00:24:59
  TRACK 24 AUDIO
    TITLE "5:cjc124_2984"
    INDEX 01 00:25:23
  TRACK 25 AUDIO
    TITLE "0:"
    INDEX 01 00:27:08
  TRACK 26 AUDIO
    TITLE "6:cjc124_2985"
    INDEX 01 00:27:45
  TRACK 27 AUDIO
    TITLE "0:"
    INDEX 01 00:28:68
  TRACK 28 AUDIO
    TITLE "5:cjc124_2986"
    INDEX 01 00:29:29
  TRACK 29 AUDIO
    TITLE "0:"
    INDEX 01 00:31:26
  TRACK 30 AUDIO
    TITLE "6:cjc124_2987"
    INDEX 01 00:31:41
  TRACK 31 AUDIO
    TITLE "0:"
    INDEX 01 00:33:69
  TRACK 32 AUDIO
    TITLE "5:cjc124_2988"
    INDEX 01 00:34:36
  TRACK 33 AUDIO
    TITLE "0:"
    INDEX 01 00:36:29
  TRACK 34 AUDIO
    TITLE "6:cjc124_2989"
    INDEX 01 00:36:52
  TRACK 35 AUDIO
    TITLE "0:"
    INDEX 01 00:38:35
  TRACK 36 AUDIO
    TITLE "5:cjc124_2990"
    INDEX 01 00:39:00
  TRACK 37 AUDIO
    TITLE "0:"
    INDEX 01 00:40:26
  TRACK 38 AUDIO
    TITLE "6:cjc124_2991"
    INDEX 01 00:40:52
  TRACK 39 AUDIO
    TITLE "0:"
    INDEX 01 00:41:71
  TRACK 40 AUDIO
    TITLE "5:cjc124_2992"
    INDEX 01 00:42:39
  TRACK 41 AUDIO
    TITLE "0:"
    INDEX 01 00:44:16
  TRACK 42 AUDIO
    TITLE "6:cjc124_2993"
    INDEX 01 00:44:32
  TRACK 43 AUDIO
    TITLE "0:"
    INDEX 01 00:45:47
  TRACK 44 AUDIO
    TITLE "5:cjc124_2994"
    INDEX 01 00:46:09
  TRACK 45 AUDIO
    TITLE "0:"
    INDEX 01 00:47:56
  TRACK 46 AUDIO
    TITLE "6:cjc124_2995"
    INDEX 01 00:47:74
  TRACK 47 AUDIO
    TITLE "0:"
    INDEX 01 00:49:08
  TRACK 48 AUDIO
    TITLE "5:cjc124_2996"
    INDEX 01 00:49:47
  TRACK 49 AUDIO
    TITLE "0:"
    INDEX 01 00:51:34
  TRACK 50 AUDIO
    TITLE "6:cjc124_2997"
    INDEX 01 00:51:50
  TRACK 51 AUDIO
    TITLE "0:"
    INDEX 01 00:53:29
  TRACK 52 AUDIO
    TITLE "5:cjc124_2998"
    INDEX 01 00:53:70
  TRACK 53 AUDIO
    TITLE "0:"
    INDEX 01 00:55:38
  TRACK 54 AUDIO
    TITLE "6:cjc124_2999"
    INDEX 01 00:55:57
  TRACK 55 AUDIO
    TITLE "0:"
    INDEX 01 00:57:35
  TRACK 56 AUDIO
    TITLE "5:cjc124_3000"
    INDEX 01 00:58:05
  TRACK 57 AUDIO
    TITLE "0:"
    INDEX 01 00:59:71
  TRACK 58 AUDIO
    TITLE "6:cjc124_3001"
    INDEX 01 01:00:10
  TRACK 59 AUDIO
    TITLE "0:"
    INDEX 01 01:01:40
  TRACK 60 AUDIO
    TITLE "5:cjc124_3002"
    INDEX 01 01:02:03
  TRACK 61 AUDIO
    TITLE "0:"
    INDEX 01 01:04:29
  TRACK 62 AUDIO
    TITLE "6:cjc124_3003"
    INDEX 01 01:04:47
  TRACK 63 AUDIO
    TITLE "0:"
    INDEX 01 01:06:08
  TRACK 64 AUDIO
    TITLE "5:cjc124_3004"
    INDEX 01 01:06:49
  TRACK 65 AUDIO
    TITLE "0:"
    INDEX 01 01:08:62
  TRACK 66 AUDIO
    TITLE "6:cjc124_3005"
    INDEX 01 01:09:05
  TRACK 67 AUDIO
    TITLE "0:"
    INDEX 01 01:10:35
